<svg xmlns="http://www.w3.org/2000/svg" viewBox="0 0 529 170">
  <!-- Speech bubble icon -->
  <g fill="none" stroke="currentColor" stroke-width="5.669" stroke-miterlimit="10">
    <path d="M62.297,38.998c14.519,1.096,25.781,4.243,27.985,5.785c7.345,5.14,16.259,11.256,17.197,12.351c0.938,1.095,5.878,5.479,7.348,13.289c1.547,8.218,0.789,14.703-1.095,22.668c-1.389,5.873-4.065,11.103-9.068,15.166c-5.003,4.065-16.861,8.825-23.919,9.069c-13.163,0.456-27.246,0.592-38.929,0c-8.942-0.453-21.839-5.035-25.796-8.6C9.667,103,8.417,100.167,6.64,91.84c-1.979-9.273-0.5-19.617,0.938-25.639c2.5-10.463,9.068-12.976,12.508-15.009c1.273-0.752,3.484-2.055,6.011-3.439c4.298-2.355,9.513-4.947,12.593-5.472C43.583,41.446,57.486,38.634,62.297,38.998z"/>
    <path d="M70.271,53.85c-4.064,3.909-7.504,4.69-12.35,4.534c-4.847-0.156-8.912-2.657-8.912-7.035c0-4.377,7.036-6.879,12.82-6.723c5.785,0.157,17.51,2.512,19.229,6.884c1.72,4.372,2.189,9.219-3.595,12.815c-5.785,3.596-15.791,5.316-24.39,4.064c-8.599-1.25-20.011-3.908-20.949-12.819c-0.938-8.912,13.144-14.763,19.93-15.623"/>
    <path d="M24.095,48.869c-8.231,8.421-6.354,19.926-2.229,24.384c10.362,11.195,30.51,11.708,36.366,11.865c5.856,0.156,21.268-0.617,28.72-4.338c4.939-2.466,14.979-13.239,14.9-17.862c-0.157-9.068-2.251-11.297-8.239-15.811"/>
  </g>
  <!-- "zweedser" wordmark -->
  <g fill="currentColor" fill-rule="evenodd">
    <path d="M272.46,72.328c-1.929-0.351-3.319,0.549-3.843,2.364c-0.408,1.417-0.449,2.946-0.604,4.431c-0.704,6.782-1.145,13.608-3.16,20.18c-0.423,1.376-0.676,3.29-2.507,3.304c-1.72,0.014-2.399-1.712-2.818-3.132c-1.99-6.757-3.09-13.618-1.995-20.684c0.767-4.941-1.311-6.706-6.162-5.267c-3.443,1.021-5.124,3.083-5.359,6.94c-0.264,4.323-0.471,8.672,0.096,12.976c0.407,3.089-0.018,5.978-1.242,8.769c-0.777,1.771-1.105,4.675-3.254,4.541c-2.588-0.162-2.374-3.215-2.722-5.209c-1.529-8.76-1.375-17.557-0.188-26.346c0.271-2.009,0.816-4.056-1.982-4.824c-4.003-1.098-9.059,1.676-9.598,5.743c-1.437,10.839-1.112,21.601,2.538,32.053c1.486,4.257,1.533,4.387-3.106,4.379c-11.993-0.021-23.99,0.005-35.979-0.29c-11.485-0.282-22.945-1.129-34.306-2.974c-0.95-0.154-2.268,0.064-2.651-0.979c-0.532-1.452,1.081-1.809,1.834-2.576c0.463-0.471,1.036-0.836,1.571-1.232c11.784-8.73,22.904-18.273,34.072-27.763c20.299-17.247,40.137-35.05,61.563-50.939c1.59-1.179,2.965-2.674,4.322-4.132c0.807-0.868,1.316-1.981,0.553-3.183c-0.615-0.969-1.657-1.144-2.648-1.013c-1.809,0.24-3.619,0.554-5.386,1.003c-5.331,1.356-12.093,0.585-17.595,0.784c-15.156,0.548-28.948,2.427-44.074,1.584c-11.072-0.617-21.941,0.616-32.855,1.732c-3.449,0.353-6.891,1.164-10.139,2.557c-1.879,0.806-3.78,1.591-3.828,4.05c-0.047,2.408,1.756,3.516,3.553,4.389c2.564,1.245,5.318,1.794,8.208,1.83c4.35,0.054,8.633-0.613,12.947-0.932c21.083-1.556,42.23-2.162,63.274-4.29c0.066-0.031,0.131-0.059,0.197-0.087c0.934-0.461,1.898-1.525,2.717,0.238c-5.899,6.136-12.778,11.116-19.49,16.267c-19.815,15.204-40.605,29.097-60.227,44.56c-6.652,5.242-13.644,10.16-18.785,17.086c-1.34,1.807-2.524,3.816-1.316,5.967c1.298,2.312,3.837,2.22,5.781,1.269c4.858-2.378,9.134-1.165,13.367,1.399c0.141,0.085,0.306,0.134,0.463,0.186c22.824,7.457,46.131,11.658,70.234,10.131c5.48-0.348,10.829-1.658,16.112-3.261c4.33-1.313,6.396-4.565,6.528-8.475c0.125-3.702,2.881-5.423,4.319-8.087c0.729-1.35,1.598-0.221,2.36,0.418c6.502,5.439,12.432,4.765,16.455-2.363c5.197-9.207,6.236-19.557,7.202-29.853C275.068,73.864,274.201,72.644,272.46,72.328z"/>
    <path d="M427.06,76.988c-0.528-3.015-3.057-5.064-6.029-4.744c-0.969,0.104-1.965,0.431-2.836,0.876c-5.118,2.612-10.537,3.934-16.259,4.429c-4.863,0.42-5.677,1.757-5.964,6.721c-0.404,6.973-3.393,13.136-6.563,19.195c-0.556,1.063-1.441,1.985-2.795,1.604c-1.059-0.298-1.467-1.323-1.59-2.343c-0.34-2.805-0.786-5.613-0.878-8.431c-0.295-9.007,0.619-17.961,1.485-26.907c0.673-6.954,1.601-13.882,2.29-20.834c0.376-3.793-1.327-5.904-4.743-6.313c-3.267-0.391-5.708,1.354-6.379,4.788c-0.381,1.952-0.489,3.961-0.645,5.951c-0.466,5.974-0.913,11.95-1.33,17.928c-0.188,2.688-0.393,4.217-4.057,2.751c-6.381-2.552-12.557-0.146-16.657,5.51c-1.585,2.187-2.505,4.662-3.399,7.182c-2.584,7.274-6.246,13.974-11.153,19.95c-1.692,2.062-3.595,3.909-6.103,5.054c-2.376,1.086-4.434,0.577-5.623-1.557c-2.475-4.439-2.27-12.611-1.444-14.133s3.485-1.859,7.105-3.289s0.319-0.088,0.479-0.137c8.621-2.684,11.017-7.658,7.72-16.054c-0.675-1.718-1.628-3.27-2.813-4.692c-5.036-6.045-11.515-5.827-16.262,0.52c-3.064,4.098-4.479,8.889-5.843,13.693c-2.227,7.836-6.3,14.664-11.47,20.841c-2.313,2.765-4.968,6.22-9.021,4.958c-4.52-1.408-3.723-6.881-4.212-9.769s2.739-7.675,6.825-9.226s3.248-0.876,4.702-1.641c2.224-1.17,4.22-2.692,5.071-5.256c1.915-5.776-2.492-15.209-8.281-17.712c-5.232-2.262-11.578,0.785-13.802,7.361c-0.077,0.147-0.156,0.294-0.229,0.444c-3.461,7.185-5.026,14.841-4.929,22.739c0.063,5.137,0.737,10.273,3.682,14.824c2.166,3.349,4.987,5.15,9.041,5.246c7.951,0.188,13.455-3.923,18.133-9.783c0.992-1.244,1.383-3.523,3.211-3.389c0.64,0.048,1.105,2.557,1.637,3.945c3.504,9.159,11.518,12.045,20.162,7.209c4.443-2.486,8.004-5.908,10.684-10.268c1.999-3.251,2.055-3.217,3.709-0.028c5.322,10.257,13.982,11.39,21.278,2.547c2.307-2.796,2.639-1.11,3.269,0.833c2.673,8.254,11.059,6.852,15.184,2.578c1.626-1.684,2.978-3.578,4.153-5.601c0.836-1.437,1.703-2.854,2.557-4.281c0.05-0.329,0.099-0.659,0.148-0.988c0.776-2.54,1.61-5.063,2.312-7.624c0.546-1.989,1.532-2.896,3.596-1.916c5.302,2.52,9.356,6.271,11.506,11.833c0.349,0.903,0.403,1.955,0.422,2.942c0.039,2.105-0.313,4.26-2.858,4.501c-2.638,0.249-3.134-2.067-3.581-3.989c-0.254-1.094-0.009-2.299-0.032-3.453c-0.088-4.379-2.507-6.066-6.523-4.44c-1.368,0.554-2.594,1.458-3.885,2.202c-0.134,0.311-0.268,0.62-0.403,0.93c-0.001,0-0.001,0-0.002,0c-1.166,5.393-0.036,10.123,4.868,13.046c5.729,3.415,11.442,2.327,17-0.946c4.907-2.891,6.073-7.277,5.253-12.427c-0.803-5.038-4.321-8.122-8.466-10.509c-2.37-1.365-4.934-2.395-8.112-3.909c5.124-1.196,9.474-2.235,13.834-3.224C426.08,81.658,427.603,80.086,427.06,76.988z M328.329,81.784c0.595-2.38,0.953-4.844,2.165-7.032c0.467-0.841,0.861-2.044,1.999-1.898c1.44,0.184,1.376,1.614,1.565,2.707c0.111,0.643,0.104,1.306,0.114,1.463c0.065,4.649-1.066,6.62-3.742,7.006C328.668,84.283,327.904,83.486,328.329,81.784z M294.733,80.379c0.376-1.969,0.853-3.899,1.88-5.655c0.502-0.858,0.917-2.059,2.063-1.846c1.108,0.207,1.215,1.457,1.359,2.446c0.12,0.822,0.166,1.656,0.229,2.312c0.025,1.686-0.027,3.214-0.896,4.506c-1.014,1.504-2.592,2.438-4.28,1.735C293.386,83.17,294.499,81.604,294.733,80.379z M373.047,86.6c-0.054,6.65-1.323,11.756-3.97,16.464c-1.135,2.019-2.497,4.249-5.29,3.693c-2.442-0.485-3.328-2.753-3.632-4.892c-0.944-6.666-0.524-13.23,2.323-19.465c0.623-1.364,1.474-2.618,2.649-3.567c2.763-2.229,5.314-1.596,6.721,1.697C372.84,82.854,373.125,85.322,373.047,86.6z"/>
    <path d="M496.967,83.452c-1.785-0.53-2.88,0.496-3.51,2.001c-0.512,1.221-0.821,2.527-1.205,3.8c-1.591,5.276-3.742,10.321-6.329,15.18c-0.55,1.033-1.224,2.231-2.593,1.915c-1.41-0.327-1.339-1.722-1.396-2.885c-0.271-5.535,0.704-10.93,1.753-16.33c1.08-5.559,0.128-6.695-5.358-6.208c-2.775,0.247-4.633,0.015-4.159-3.522c0.229-1.703-0.208-3.382-2.252-3.923c-1.783-0.472-3.321,0.086-4.521,1.406c-1.75,1.923-3.005,4.123-2.006,6.793c0.626,1.671,0.727,3.222,0.063,4.835c-2.998,7.285-6.92,14.016-12.251,19.849c-0.988,1.081-2.282,1.978-3.593,2.649c-3.407,1.748-5.799,0.788-7.015-2.819c-0.962-2.854-1.322-5.853-1.199-8.859c0.208-5.095,0.413-5.246,5.435-6.415c2.753-0.641,5.482-1.331,7.86-3.014c2.333-1.65,3.72-3.789,3.753-6.678c0.059-5.258-1.703-9.861-5.602-13.385c-4.607-4.164-10.401-3.878-13.889,1.203c-8.422,12.27-10.508,25.725-5.565,39.87c2.024,5.795,5.974,7.807,12.082,7.598c4.569-0.156,8.318-2.152,11.701-4.982c5.956-4.984,9.064-11.788,11.801-18.804c0.725-1.858,1.294-3.776,1.985-5.647c0.309-0.838,0.896-1.438,1.895-1.15c1.094,0.316,0.972,1.209,0.781,2.027c-0.863,3.732-1.686,7.467-1.642,11.33c-0.043,4.285,0.684,8.275,1.95,10.698c2.009,3.844,5.657,5.198,9.649,3.575c2.215-0.9,4.089-2.34,5.504-4.2c5.033-6.619,7.683-14.302,9.573-22.284C499.042,85.497,498.805,83.998,496.967,83.452z M443.885,81.578c0.365-1.611,0.727-3.251,1.359-4.767c0.649-1.558,0.681-4.35,2.947-3.889c1.835,0.374,1.611,2.943,1.757,4.681c-0.326,2.525-0.335,5.133-3.301,6.168C444.566,84.498,443.308,84.129,443.885,81.578z"/>
    <path d="M229.188,30.083c-0.066,0.032-0.131,0.062-0.197,0.087c0.971,0.05,1.942,0.101,2.914,0.15C231.038,29.487,230.119,29.668,229.188,30.083z"/>
  </g>
  <!-- "TAAL EN CULTUUR" subtitle -->
  <g fill="currentColor" stroke="currentColor" stroke-miterlimit="10">
    <path d="M169.453,149.105v-9.087h-3.46v-1.218h8.291v1.218h-3.46v9.087H169.453z"/>
    <path d="M185.175,149.105l3.474-10.305h1.688l3.474,10.305h-1.446l-0.934-2.879h-3.938l-0.934,2.879H185.175z M191.051,145.057l-1.592-4.857l-1.584,4.857H191.051z"/>
    <path d="M205.438,149.105l3.474-10.305h1.688l3.474,10.305h-1.446l-0.934-2.879h-3.938l-0.934,2.879H205.438z M211.313,145.057l-1.592-4.857l-1.584,4.857H211.313z"/>
    <path d="M232.787,149.105h-5.973v-10.305h1.37v9.087h4.603V149.105z"/>
    <path d="M261.823,149.105v-10.305h6.443v1.218h-5.073v2.824h4.727v1.218h-4.727v3.827h5.073v1.218H261.823z"/>
    <path d="M288.909,149.105h-1.536l-4.554-8.886v8.886h-1.28v-10.305h1.944l4.146,8.159v-8.159h1.28V149.105z"/>
    <path d="M322.983,149.292c-0.673,0-1.293-0.112-1.857-0.339c-0.565-0.226-1.054-0.563-1.464-1.011c-0.411-0.447-0.729-1.005-0.955-1.675c-0.227-0.668-0.339-1.437-0.339-2.304c0-0.863,0.109-1.615,0.328-2.257c0.22-0.641,0.539-1.199,0.959-1.675c0.41-0.461,0.897-0.813,1.46-1.055s1.192-0.363,1.89-0.363c0.346,0,0.67,0.025,0.972,0.076c0.303,0.051,0.583,0.115,0.841,0.193c0.222,0.069,0.449,0.156,0.682,0.26c0.233,0.104,0.463,0.218,0.689,0.343v1.653h-0.111c-0.12-0.11-0.274-0.244-0.464-0.401c-0.188-0.156-0.42-0.312-0.691-0.464c-0.264-0.143-0.55-0.26-0.858-0.353c-0.31-0.092-0.667-0.139-1.072-0.139c-0.438,0-0.854,0.09-1.246,0.271c-0.393,0.18-0.736,0.445-1.031,0.796c-0.291,0.351-0.517,0.791-0.678,1.321c-0.162,0.531-0.242,1.128-0.242,1.793c0,0.705,0.085,1.313,0.256,1.823c0.17,0.51,0.403,0.94,0.699,1.291c0.285,0.341,0.622,0.599,1.01,0.771s0.798,0.26,1.232,0.26c0.396,0,0.763-0.049,1.1-0.146c0.337-0.098,0.637-0.22,0.9-0.367c0.253-0.143,0.473-0.289,0.657-0.439c0.185-0.149,0.33-0.277,0.436-0.384h0.104v1.633c-0.227,0.106-0.439,0.208-0.641,0.305c-0.2,0.097-0.444,0.191-0.73,0.284c-0.3,0.097-0.577,0.17-0.833,0.221C323.728,149.267,323.395,149.292,322.983,149.292z"/>
    <path d="M342.83,149.32c-0.604,0-1.133-0.08-1.585-0.239s-0.837-0.396-1.155-0.709c-0.36-0.36-0.614-0.79-0.762-1.291c-0.147-0.5-0.221-1.117-0.221-1.852v-6.429h1.37v6.429c0,0.476,0.029,0.876,0.09,1.201c0.06,0.325,0.178,0.617,0.353,0.875c0.185,0.277,0.435,0.487,0.751,0.63c0.316,0.144,0.702,0.215,1.159,0.215c0.429,0,0.81-0.071,1.142-0.215c0.333-0.143,0.591-0.353,0.775-0.63c0.171-0.263,0.287-0.553,0.35-0.871s0.094-0.709,0.094-1.17v-6.464h1.37v6.429c0,0.716-0.073,1.329-0.218,1.842c-0.146,0.512-0.4,0.945-0.765,1.301c-0.328,0.318-0.71,0.556-1.146,0.713C343.996,149.241,343.462,149.32,342.83,149.32z"/>
    <path d="M366.263,149.105h-5.973v-10.305h1.37v9.087h4.603V149.105z"/>
    <path d="M380.393,149.105v-9.087h-3.46v-1.218h8.291v1.218h-3.461v9.087H380.393z"/>
    <path d="M401.624,149.32c-0.604,0-1.133-0.08-1.585-0.239s-0.837-0.396-1.155-0.709c-0.36-0.36-0.614-0.79-0.762-1.291c-0.147-0.5-0.221-1.117-0.221-1.852v-6.429h1.37v6.429c0,0.476,0.029,0.876,0.09,1.201c0.06,0.325,0.178,0.617,0.353,0.875c0.185,0.277,0.435,0.487,0.751,0.63c0.316,0.144,0.702,0.215,1.159,0.215c0.429,0,0.81-0.071,1.142-0.215c0.333-0.143,0.591-0.353,0.775-0.63c0.171-0.263,0.287-0.553,0.35-0.871s0.094-0.709,0.094-1.17v-6.464h1.37v6.429c0,0.716-0.073,1.329-0.218,1.842c-0.146,0.512-0.4,0.945-0.765,1.301c-0.328,0.318-0.71,0.556-1.146,0.713C402.79,149.241,402.256,149.32,401.624,149.32z"/>
    <path d="M422.682,149.32c-0.604,0-1.133-0.08-1.585-0.239s-0.837-0.396-1.155-0.709c-0.36-0.36-0.614-0.79-0.762-1.291c-0.147-0.5-0.221-1.117-0.221-1.852v-6.429h1.37v6.429c0,0.476,0.029,0.876,0.09,1.201c0.06,0.325,0.178,0.617,0.353,0.875c0.185,0.277,0.435,0.487,0.751,0.63c0.316,0.144,0.702,0.215,1.159,0.215c0.429,0,0.81-0.071,1.142-0.215c0.333-0.143,0.591-0.353,0.775-0.63c0.171-0.263,0.287-0.553,0.35-0.871s0.094-0.709,0.094-1.17v-6.464h1.37v6.429c0,0.716-0.073,1.329-0.218,1.842c-0.146,0.512-0.4,0.945-0.765,1.301c-0.328,0.318-0.71,0.556-1.146,0.713C423.848,149.241,423.313,149.32,422.682,149.32z"/>
    <path d="M448.121,149.105h-1.778l-3.267-4.097h-1.564v4.097h-1.37v-10.305h2.657c0.591,0,1.086,0.032,1.484,0.097c0.399,0.064,0.779,0.215,1.139,0.45c0.36,0.23,0.645,0.528,0.854,0.893s0.315,0.816,0.315,1.356c0,0.757-0.191,1.389-0.574,1.896c-0.384,0.508-0.904,0.884-1.564,1.128L448.121,149.105z M445.159,141.7c0-0.3-0.053-0.566-0.159-0.799c-0.106-0.233-0.27-0.424-0.491-0.571c-0.194-0.129-0.42-0.22-0.679-0.273c-0.258-0.053-0.579-0.079-0.962-0.079h-1.356v3.889h1.204c0.393,0,0.745-0.034,1.06-0.104c0.313-0.069,0.581-0.212,0.803-0.429c0.198-0.194,0.345-0.425,0.439-0.692C445.111,142.374,445.159,142.061,445.159,141.7z"/>
  </g>
</svg>
